<svg width="20" height="20" viewBox="0 0 20 20" fill="none" xmlns="http://www.w3.org/2000/svg">
<path d="M10.1 20.0004C8.7 20.0004 7.3875 19.7337 6.1625 19.2004C4.9375 18.6671 3.87083 17.9462 2.9625 17.0379C2.05417 16.1296 1.33333 15.0629 0.8 13.8379C0.266667 12.6129 0 11.3004 0 9.9004C0 7.76706 0.6 5.83373 1.8 4.1004C3 2.36706 4.60833 1.1504 6.625 0.450395C6.99167 0.317062 7.33333 0.362895 7.65 0.587895C7.96667 0.812895 8.11667 1.11706 8.1 1.5004C8.05 2.91706 8.275 4.26706 8.775 5.5504C9.275 6.83373 10.025 7.9754 11.025 8.9754C12.025 9.9754 13.1667 10.7254 14.45 11.2254C15.7333 11.7254 17.0833 11.9504 18.5 11.9004C18.9333 11.8837 19.2542 12.0296 19.4625 12.3379C19.6708 12.6462 19.7083 12.9921 19.575 13.3754C18.8417 15.3754 17.6125 16.9796 15.8875 18.1879C14.1625 19.3962 12.2333 20.0004 10.1 20.0004ZM10.1 18.0004C11.5667 18.0004 12.925 17.6337 14.175 16.9004C15.425 16.1671 16.4083 15.1587 17.125 13.8754C15.6917 13.7421 14.3333 13.3796 13.05 12.7879C11.7667 12.1962 10.6167 11.3921 9.6 10.3754C8.58333 9.35873 7.775 8.20873 7.175 6.9254C6.575 5.64206 6.21667 4.28373 6.1 2.8504C4.81667 3.56706 3.8125 4.55456 3.0875 5.8129C2.3625 7.07123 2 8.43373 2 9.9004C2 12.1504 2.7875 14.0629 4.3625 15.6379C5.9375 17.2129 7.85 18.0004 10.1 18.0004Z" fill="#FBFBF5"/>
</svg>
