<svg width="24" height="24" viewBox="0 0 24 24" fill="none" xmlns="http://www.w3.org/2000/svg">
<mask id="mask0_12_3356" style="mask-type:alpha" maskUnits="userSpaceOnUse" x="0" y="0" width="24" height="24">
<rect width="24" height="24" fill="#D9D9D9"/>
</mask>
<g mask="url(#mask0_12_3356)">
<path d="M10.5502 18.1997L15.7252 11.9997H11.7252L12.4502 6.32471L7.82516 12.9997H11.3002L10.5502 18.1997ZM9.57716 14.4997H6.53491C6.19891 14.4997 5.95275 14.351 5.79641 14.0535C5.63991 13.7561 5.65916 13.4696 5.85416 13.194L12.4059 3.74221C12.5406 3.55371 12.7124 3.42479 12.9214 3.35546C13.1302 3.28629 13.3475 3.29212 13.5732 3.37296C13.7988 3.45362 13.9639 3.59171 14.0684 3.78721C14.1729 3.98271 14.2117 4.19329 14.1847 4.41896L13.4329 10.4997H17.1637C17.52 10.4997 17.7712 10.6594 17.9174 10.9787C18.0636 11.2979 18.0207 11.5953 17.7887 11.871L10.5444 20.5477C10.3996 20.7195 10.2227 20.8308 10.0137 20.8815C9.80466 20.932 9.60083 20.9117 9.40216 20.8207C9.2035 20.7297 9.04933 20.5906 8.93966 20.4035C8.83 20.2163 8.78866 20.0099 8.81566 19.7842L9.57716 14.4997Z" fill="#FBF8F5"/>
</g>
</svg>
