<svg width="20" height="20" viewBox="0 0 20 20" fill="none" xmlns="http://www.w3.org/2000/svg">
<mask id="mask0_12_3177" style="mask-type:alpha" maskUnits="userSpaceOnUse" x="0" y="0" width="20" height="20">
<rect width="20" height="20" fill="#D9D9D9"/>
</mask>
<g mask="url(#mask0_12_3177)">
<path d="M4.75678 17.584C4.38164 17.584 4.06456 17.4521 3.80553 17.1882C3.54651 16.9243 3.41699 16.6096 3.41699 16.2442V5.75712C3.41699 5.39171 3.54651 5.07705 3.80553 4.81316C4.06456 4.54927 4.38164 4.41733 4.75678 4.41733H6.5772V2.87879C6.5772 2.71976 6.62998 2.58705 6.73553 2.48066C6.84109 2.37441 6.97276 2.32129 7.13053 2.32129C7.28845 2.32129 7.42158 2.37441 7.52991 2.48066C7.63838 2.58705 7.69262 2.71976 7.69262 2.87879V4.41733H12.3401V2.86296C12.3401 2.70921 12.3915 2.58045 12.4943 2.4767C12.5972 2.37309 12.7249 2.32129 12.8774 2.32129C13.0299 2.32129 13.159 2.37309 13.2647 2.4767C13.3705 2.58045 13.4235 2.70921 13.4235 2.86296V4.41733H15.2439C15.619 4.41733 15.9361 4.54927 16.1951 4.81316C16.4541 5.07705 16.5837 5.39171 16.5837 5.75712V16.2442C16.5837 16.6096 16.4541 16.9243 16.1951 17.1882C15.9361 17.4521 15.619 17.584 15.2439 17.584H4.75678ZM4.75678 16.5007H15.2439C15.308 16.5007 15.3668 16.4739 15.4201 16.4205C15.4736 16.3671 15.5003 16.3084 15.5003 16.2442V9.25712H4.50033V16.2442C4.50033 16.3084 4.52706 16.3671 4.58053 16.4205C4.63387 16.4739 4.69262 16.5007 4.75678 16.5007Z" fill="#1C1B1F"/>
</g>
</svg>
