<svg width="20" height="20" viewBox="0 0 20 20" fill="none" xmlns="http://www.w3.org/2000/svg">
<mask id="mask0_171_11014" style="mask-type:alpha" maskUnits="userSpaceOnUse" x="0" y="0" width="20" height="20">
<rect width="20" height="20" fill="#D9D9D9"/>
</mask>
<g mask="url(#mask0_171_11014)">
<path d="M4.75678 17.583C4.38164 17.583 4.06456 17.4511 3.80553 17.1872C3.54651 16.9233 3.41699 16.6086 3.41699 16.2432V5.75615C3.41699 5.39073 3.54651 5.07608 3.80553 4.81219C4.06456 4.5483 4.38164 4.41635 4.75678 4.41635H6.5772V2.87781C6.5772 2.71878 6.62998 2.58608 6.73553 2.47969C6.84109 2.37344 6.97276 2.32031 7.13053 2.32031C7.28845 2.32031 7.42158 2.37344 7.52991 2.47969C7.63838 2.58608 7.69262 2.71878 7.69262 2.87781V4.41635H12.3401V2.86198C12.3401 2.70823 12.3915 2.57948 12.4943 2.47573C12.5972 2.37212 12.7249 2.32031 12.8774 2.32031C13.0299 2.32031 13.159 2.37212 13.2647 2.47573C13.3705 2.57948 13.4235 2.70823 13.4235 2.86198V4.41635H15.2439C15.619 4.41635 15.9361 4.5483 16.1951 4.81219C16.4541 5.07608 16.5837 5.39073 16.5837 5.75615V16.2432C16.5837 16.6086 16.4541 16.9233 16.1951 17.1872C15.9361 17.4511 15.619 17.583 15.2439 17.583H4.75678ZM4.75678 16.4997H15.2439C15.308 16.4997 15.3668 16.473 15.4201 16.4195C15.4736 16.3661 15.5003 16.3074 15.5003 16.2432V9.25615H4.50033V16.2432C4.50033 16.3074 4.52706 16.3661 4.58053 16.4195C4.63387 16.473 4.69262 16.4997 4.75678 16.4997Z" fill="#1C1B1F"/>
</g>
</svg>
