<svg width="40" height="40" viewBox="0 0 40 40" fill="none" xmlns="http://www.w3.org/2000/svg">
<g clip-path="url(#clip0_2007_1459)">
<path d="M20 29.9998C18.6167 29.9998 17.3167 29.7373 16.1 29.2123C14.8833 28.6873 13.825 27.9748 12.925 27.0748C12.025 26.1748 11.3125 25.1164 10.7875 23.8998C10.2625 22.6831 10 21.3831 10 19.9998C10 18.6164 10.2625 17.3164 10.7875 16.0998C11.3125 14.8831 12.025 13.8248 12.925 12.9248C13.825 12.0248 14.8833 11.3123 16.1 10.7873C17.3167 10.2623 18.6167 9.99976 20 9.99976C21.3833 9.99976 22.6833 10.2623 23.9 10.7873C25.1167 11.3123 26.175 12.0248 27.075 12.9248C27.975 13.8248 28.6875 14.8831 29.2125 16.0998C29.7375 17.3164 30 18.6164 30 19.9998C30 21.3831 29.7375 22.6831 29.2125 23.8998C28.6875 25.1164 27.975 26.1748 27.075 27.0748C26.175 27.9748 25.1167 28.6873 23.9 29.2123C22.6833 29.7373 21.3833 29.9998 20 29.9998ZM20 27.9998C22.2333 27.9998 24.125 27.2248 25.675 25.6748C27.225 24.1248 28 22.2331 28 19.9998C28 17.7664 27.225 15.8748 25.675 14.3248C24.125 12.7748 22.2333 11.9998 20 11.9998C17.7667 11.9998 15.875 12.7748 14.325 14.3248C12.775 15.8748 12 17.7664 12 19.9998C12 22.2331 12.775 24.1248 14.325 25.6748C15.875 27.2248 17.7667 27.9998 20 27.9998Z" fill="#5F29FE"/>
</g>
<defs>
<clipPath id="clip0_2007_1459">
<rect y="-0.000244141" width="40" height="40" rx="20" fill="white"/>
</clipPath>
</defs>
</svg>
