<svg width="24" height="24" viewBox="0 0 24 24" fill="none" xmlns="http://www.w3.org/2000/svg">
<mask id="mask0_12_3338" style="mask-type:alpha" maskUnits="userSpaceOnUse" x="0" y="0" width="24" height="24">
<rect width="24" height="24" fill="#D9D9D9"/>
</mask>
<g mask="url(#mask0_12_3338)">
<path d="M4.5002 18.6923V11.2403L3.23095 12.227C3.05528 12.3552 2.86936 12.4058 2.6732 12.3788C2.4772 12.3519 2.31503 12.2507 2.1867 12.075C2.05853 11.8993 2.00628 11.7134 2.02995 11.5173C2.05378 11.3211 2.14836 11.1589 2.3137 11.0308L4.5002 9.35001V7.23076C4.5002 7.01793 4.57203 6.83976 4.7157 6.69626C4.8592 6.55259 5.03736 6.48076 5.2502 6.48076C5.46303 6.48076 5.6412 6.55259 5.7847 6.69626C5.92836 6.83976 6.0002 7.01793 6.0002 7.23076V8.20001L10.9002 4.46351C11.2349 4.21218 11.6031 4.08651 12.0049 4.08651C12.4069 4.08651 12.772 4.21218 13.1002 4.46351L21.6867 11.0308C21.852 11.1589 21.9466 11.3211 21.9704 11.5173C21.9941 11.7134 21.9419 11.8993 21.8137 12.075C21.6854 12.2403 21.5232 12.3365 21.3272 12.3635C21.131 12.3903 20.9502 12.3397 20.7847 12.2115L19.5002 11.2403V18.6923C19.5002 19.1909 19.3236 19.6169 18.9704 19.9703C18.6171 20.3234 18.1911 20.5 17.6924 20.5H6.30795C5.80928 20.5 5.38328 20.3234 5.02995 19.9703C4.67678 19.6169 4.5002 19.1909 4.5002 18.6923ZM6.30795 19H10.8079V15.8078C10.8079 15.4731 10.9229 15.1907 11.1529 14.9605C11.3831 14.7303 11.6655 14.6153 12.0002 14.6153C12.3349 14.6153 12.6173 14.7303 12.8474 14.9605C13.0774 15.1907 13.1924 15.4731 13.1924 15.8078V19H17.6924C17.7823 19 17.856 18.9712 17.9137 18.9135C17.9714 18.8558 18.0002 18.7821 18.0002 18.6923V10.1L12.1829 5.66926C12.1316 5.62443 12.0707 5.60201 12.0002 5.60201C11.9297 5.60201 11.8688 5.62443 11.8174 5.66926L6.0002 10.1V18.6923C6.0002 18.7821 6.02903 18.8558 6.0867 18.9135C6.14436 18.9712 6.21811 19 6.30795 19ZM6.30795 19H18.0002H6.0002H6.30795ZM5.4252 5.38476C5.1572 5.38476 4.94628 5.27451 4.79245 5.05401C4.63861 4.83351 4.62136 4.60459 4.7407 4.36726C4.9407 3.88393 5.25545 3.50001 5.68495 3.21551C6.11428 2.93084 6.5912 2.78851 7.1157 2.78851C7.34386 2.78851 7.55728 2.72668 7.75595 2.60301C7.95461 2.47918 8.08928 2.31151 8.15995 2.10001C8.21761 1.97568 8.30286 1.87668 8.4157 1.80301C8.52853 1.72918 8.65736 1.69226 8.8022 1.69226C9.07653 1.69226 9.28961 1.80418 9.44145 2.02801C9.59345 2.25168 9.60978 2.48526 9.49045 2.72876C9.28411 3.20576 8.96778 3.58493 8.54145 3.86626C8.11528 4.14776 7.64003 4.28851 7.1157 4.28851C6.88736 4.28851 6.67386 4.34301 6.4752 4.45201C6.27653 4.56101 6.14195 4.72634 6.07145 4.94801C6.00728 5.07884 5.92136 5.18434 5.8137 5.26451C5.70603 5.34468 5.57653 5.38476 5.4252 5.38476Z" fill="#FBF8F5"/>
</g>
</svg>
