<svg width="24" height="24" viewBox="0 0 24 24" fill="none" xmlns="http://www.w3.org/2000/svg">
<mask id="mask0_2012_5383" style="mask-type:alpha" maskUnits="userSpaceOnUse" x="0" y="0" width="24" height="24">
<rect width="24" height="24" fill="#D9D9D9"/>
</mask>
<g mask="url(#mask0_2012_5383)">
<path d="M4.49995 18.6923V11.2403L3.2307 12.227C3.05504 12.3552 2.86912 12.4058 2.67295 12.3788C2.47695 12.3519 2.31479 12.2507 2.18645 12.075C2.05829 11.8993 2.00604 11.7134 2.0297 11.5173C2.05354 11.3211 2.14812 11.1589 2.31345 11.0308L4.49995 9.35001V7.23076C4.49995 7.01793 4.57179 6.83976 4.71545 6.69626C4.85895 6.55259 5.03712 6.48076 5.24995 6.48076C5.46279 6.48076 5.64095 6.55259 5.78445 6.69626C5.92812 6.83976 5.99995 7.01793 5.99995 7.23076V8.20001L10.9 4.46351C11.2346 4.21218 11.6029 4.08651 12.0047 4.08651C12.4067 4.08651 12.7718 4.21218 13.1 4.46351L21.6865 11.0308C21.8518 11.1589 21.9464 11.3211 21.9702 11.5173C21.9939 11.7134 21.9416 11.8993 21.8135 12.075C21.6851 12.2403 21.523 12.3365 21.327 12.3635C21.1308 12.3903 20.95 12.3397 20.7845 12.2115L19.5 11.2403V18.6923C19.5 19.1909 19.3234 19.6169 18.9702 19.9703C18.6169 20.3234 18.1909 20.5 17.6922 20.5H6.3077C5.80904 20.5 5.38304 20.3234 5.0297 19.9703C4.67654 19.6169 4.49995 19.1909 4.49995 18.6923ZM6.3077 19H10.8077V15.8078C10.8077 15.4731 10.9227 15.1907 11.1527 14.9605C11.3829 14.7303 11.6653 14.6153 12 14.6153C12.3346 14.6153 12.617 14.7303 12.8472 14.9605C13.0772 15.1907 13.1922 15.4731 13.1922 15.8078V19H17.6922C17.782 19 17.8558 18.9712 17.9135 18.9135C17.9711 18.8558 18 18.7821 18 18.6923V10.1L12.1827 5.66926C12.1314 5.62443 12.0705 5.60201 12 5.60201C11.9295 5.60201 11.8685 5.62443 11.8172 5.66926L5.99995 10.1V18.6923C5.99995 18.7821 6.02879 18.8558 6.08645 18.9135C6.14412 18.9712 6.21787 19 6.3077 19ZM6.3077 19H18H5.99995H6.3077ZM5.42495 5.38476C5.15695 5.38476 4.94604 5.27451 4.7922 5.05401C4.63837 4.83351 4.62112 4.60459 4.74045 4.36726C4.94045 3.88393 5.2552 3.50001 5.6847 3.21551C6.11404 2.93084 6.59095 2.78851 7.11545 2.78851C7.34362 2.78851 7.55704 2.72668 7.7557 2.60301C7.95437 2.47918 8.08904 2.31151 8.1597 2.10001C8.21737 1.97568 8.30262 1.87668 8.41545 1.80301C8.52829 1.72918 8.65712 1.69226 8.80195 1.69226C9.07629 1.69226 9.28937 1.80418 9.4412 2.02801C9.5932 2.25168 9.60954 2.48526 9.4902 2.72876C9.28387 3.20576 8.96754 3.58493 8.5412 3.86626C8.11504 4.14776 7.63979 4.28851 7.11545 4.28851C6.88712 4.28851 6.67362 4.34301 6.47495 4.45201C6.27629 4.56101 6.1417 4.72634 6.0712 4.94801C6.00704 5.07884 5.92112 5.18434 5.81345 5.26451C5.70579 5.34468 5.57629 5.38476 5.42495 5.38476Z" fill="#DAD5E8"/>
</g>
</svg>
