<svg width="20" height="20" viewBox="0 0 20 20" fill="none" xmlns="http://www.w3.org/2000/svg">
<mask id="mask0_12_3193" style="mask-type:alpha" maskUnits="userSpaceOnUse" x="0" y="0" width="20" height="20">
<rect width="20" height="20" fill="#D9D9D9"/>
</mask>
<g mask="url(#mask0_12_3193)">
<path d="M1.4248 16.0741V13.4523C1.4248 13.105 1.5439 12.8057 1.7821 12.5541C2.02029 12.3025 2.313 12.1713 2.66022 12.1606H5.27085C5.49418 12.1606 5.698 12.2116 5.88231 12.3137C6.06647 12.4158 6.22967 12.556 6.37189 12.7343C6.78522 13.3443 7.30814 13.8179 7.94064 14.155C8.57314 14.492 9.2596 14.6606 10 14.6606C10.735 14.6606 11.4201 14.492 12.0552 14.155C12.6905 13.8179 13.2175 13.3443 13.6363 12.7343C13.7677 12.556 13.9268 12.4158 14.1138 12.3137C14.3007 12.2116 14.5058 12.1606 14.7292 12.1606H17.3398C17.6816 12.1713 17.9743 12.3025 18.2179 12.5541C18.4615 12.8057 18.5833 13.105 18.5833 13.4523V16.0741C18.5833 16.2611 18.5184 16.4195 18.3886 16.5493C18.2588 16.6791 18.1004 16.7439 17.9133 16.7439H13.6698C13.4829 16.7439 13.3245 16.6791 13.1948 16.5493C13.0649 16.4195 13 16.2611 13 16.0741V14.8048C12.5802 15.1403 12.1085 15.3807 11.585 15.526C11.0614 15.6713 10.5331 15.7439 10 15.7439C9.46696 15.7439 8.9448 15.6739 8.43355 15.5339C7.9223 15.3941 7.4471 15.1564 7.00793 14.8208V16.0741C7.00793 16.2611 6.94307 16.4195 6.81335 16.5493C6.68349 16.6791 6.52508 16.7439 6.33814 16.7439H2.0946C1.90765 16.7439 1.74925 16.6791 1.61939 16.5493C1.48967 16.4195 1.4248 16.2611 1.4248 16.0741ZM10 13.5902C9.44335 13.5902 8.92703 13.4601 8.45106 13.2C7.97522 12.9398 7.57862 12.5843 7.26126 12.1333C7.08821 11.9069 6.89244 11.713 6.67397 11.5516C6.4555 11.3904 6.21321 11.2745 5.9471 11.2039C6.64793 10.8396 7.32474 10.5827 7.97751 10.4331C8.63029 10.2835 9.30446 10.2087 10 10.2087C10.6956 10.2087 11.3697 10.2835 12.0225 10.4331C12.6753 10.5827 13.3547 10.8396 14.0608 11.2039C13.7895 11.2745 13.5459 11.3904 13.3302 11.5516C13.1144 11.713 12.9199 11.9069 12.7469 12.1333C12.4295 12.5843 12.0315 12.9398 11.5529 13.2C11.0743 13.4601 10.5567 13.5902 10 13.5902ZM3.74043 10.8402C3.11015 10.8402 2.57064 10.6158 2.12189 10.167C1.67314 9.71829 1.44876 9.17878 1.44876 8.5485C1.44876 7.91809 1.67314 7.37857 2.12189 6.92996C2.57064 6.48121 3.11015 6.25684 3.74043 6.25684C4.37071 6.25684 4.91022 6.48121 5.35897 6.92996C5.80772 7.37857 6.0321 7.91809 6.0321 8.5485C6.0321 9.17878 5.80772 9.71829 5.35897 10.167C4.91022 10.6158 4.37071 10.8402 3.74043 10.8402ZM16.2596 10.8402C15.6293 10.8402 15.0898 10.6158 14.6411 10.167C14.1923 9.71829 13.9679 9.17878 13.9679 8.5485C13.9679 7.91809 14.1923 7.37857 14.6411 6.92996C15.0898 6.48121 15.6293 6.25684 16.2596 6.25684C16.8899 6.25684 17.4294 6.48121 17.8781 6.92996C18.3269 7.37857 18.5513 7.91809 18.5513 8.5485C18.5513 9.17878 18.3269 9.71829 17.8781 10.167C17.4294 10.6158 16.8899 10.8402 16.2596 10.8402ZM10 8.84017C9.36974 8.84017 8.83022 8.61579 8.38147 8.16704C7.93272 7.71829 7.70835 7.17878 7.70835 6.5485C7.70835 5.91809 7.93272 5.37857 8.38147 4.92996C8.83022 4.48121 9.36974 4.25684 10 4.25684C10.6303 4.25684 11.1698 4.48121 11.6186 4.92996C12.0673 5.37857 12.2917 5.91809 12.2917 6.5485C12.2917 7.17878 12.0673 7.71829 11.6186 8.16704C11.1698 8.61579 10.6303 8.84017 10 8.84017Z" fill="#1C1B1F"/>
</g>
</svg>
