<svg width="20" height="20" viewBox="0 0 20 20" fill="none" xmlns="http://www.w3.org/2000/svg">
<mask id="mask0_171_11030" style="mask-type:alpha" maskUnits="userSpaceOnUse" x="0" y="0" width="20" height="20">
<rect width="20" height="20" fill="#D9D9D9"/>
</mask>
<g mask="url(#mask0_171_11030)">
<path d="M1.4248 16.0751V13.4532C1.4248 13.106 1.5439 12.8066 1.7821 12.5551C2.02029 12.3034 2.313 12.1723 2.66022 12.1616H5.27085C5.49418 12.1616 5.698 12.2126 5.88231 12.3147C6.06647 12.4168 6.22967 12.557 6.37189 12.7353C6.78522 13.3453 7.30814 13.8189 7.94064 14.1559C8.57314 14.493 9.2596 14.6616 10 14.6616C10.735 14.6616 11.4201 14.493 12.0552 14.1559C12.6905 13.8189 13.2175 13.3453 13.6363 12.7353C13.7677 12.557 13.9268 12.4168 14.1138 12.3147C14.3007 12.2126 14.5058 12.1616 14.7292 12.1616H17.3398C17.6816 12.1723 17.9743 12.3034 18.2179 12.5551C18.4615 12.8066 18.5833 13.106 18.5833 13.4532V16.0751C18.5833 16.262 18.5184 16.4205 18.3886 16.5503C18.2588 16.68 18.1004 16.7449 17.9133 16.7449H13.6698C13.4829 16.7449 13.3245 16.68 13.1948 16.5503C13.0649 16.4205 13 16.262 13 16.0751V14.8057C12.5802 15.1413 12.1085 15.3817 11.585 15.527C11.0614 15.6723 10.5331 15.7449 10 15.7449C9.46696 15.7449 8.9448 15.6749 8.43355 15.5349C7.9223 15.395 7.4471 15.1573 7.00793 14.8218V16.0751C7.00793 16.262 6.94307 16.4205 6.81335 16.5503C6.68349 16.68 6.52508 16.7449 6.33814 16.7449H2.0946C1.90765 16.7449 1.74925 16.68 1.61939 16.5503C1.48967 16.4205 1.4248 16.262 1.4248 16.0751ZM10 13.5911C9.44335 13.5911 8.92703 13.4611 8.45106 13.2009C7.97522 12.9408 7.57862 12.5852 7.26126 12.1343C7.08821 11.9079 6.89244 11.714 6.67397 11.5526C6.4555 11.3914 6.21321 11.2755 5.9471 11.2049C6.64793 10.8406 7.32474 10.5836 7.97751 10.4341C8.63029 10.2845 9.30446 10.2097 10 10.2097C10.6956 10.2097 11.3697 10.2845 12.0225 10.4341C12.6753 10.5836 13.3547 10.8406 14.0608 11.2049C13.7895 11.2755 13.5459 11.3914 13.3302 11.5526C13.1144 11.714 12.9199 11.9079 12.7469 12.1343C12.4295 12.5852 12.0315 12.9408 11.5529 13.2009C11.0743 13.4611 10.5567 13.5911 10 13.5911ZM3.74043 10.8411C3.11015 10.8411 2.57064 10.6168 2.12189 10.168C1.67314 9.71927 1.44876 9.17976 1.44876 8.54948C1.44876 7.91906 1.67314 7.37955 2.12189 6.93094C2.57064 6.48219 3.11015 6.25781 3.74043 6.25781C4.37071 6.25781 4.91022 6.48219 5.35897 6.93094C5.80772 7.37955 6.0321 7.91906 6.0321 8.54948C6.0321 9.17976 5.80772 9.71927 5.35897 10.168C4.91022 10.6168 4.37071 10.8411 3.74043 10.8411ZM16.2596 10.8411C15.6293 10.8411 15.0898 10.6168 14.6411 10.168C14.1923 9.71927 13.9679 9.17976 13.9679 8.54948C13.9679 7.91906 14.1923 7.37955 14.6411 6.93094C15.0898 6.48219 15.6293 6.25781 16.2596 6.25781C16.8899 6.25781 17.4294 6.48219 17.8781 6.93094C18.3269 7.37955 18.5513 7.91906 18.5513 8.54948C18.5513 9.17976 18.3269 9.71927 17.8781 10.168C17.4294 10.6168 16.8899 10.8411 16.2596 10.8411ZM10 8.84115C9.36974 8.84115 8.83022 8.61677 8.38147 8.16802C7.93272 7.71927 7.70835 7.17976 7.70835 6.54948C7.70835 5.91906 7.93272 5.37955 8.38147 4.93094C8.83022 4.48219 9.36974 4.25781 10 4.25781C10.6303 4.25781 11.1698 4.48219 11.6186 4.93094C12.0673 5.37955 12.2917 5.91906 12.2917 6.54948C12.2917 7.17976 12.0673 7.71927 11.6186 8.16802C11.1698 8.61677 10.6303 8.84115 10 8.84115Z" fill="#1C1B1F"/>
</g>
</svg>
