<svg width="24" height="24" viewBox="0 0 24 24" fill="none" xmlns="http://www.w3.org/2000/svg">
<mask id="mask0_12_3153" style="mask-type:alpha" maskUnits="userSpaceOnUse" x="0" y="0" width="24" height="24">
<rect width="24" height="24" fill="#D9D9D9"/>
</mask>
<g mask="url(#mask0_12_3153)">
<path d="M1.3655 17.7884C1.12033 17.7884 0.91475 17.7055 0.74875 17.5396C0.582917 17.3736 0.5 17.168 0.5 16.9229V16.5691C0.5 15.9038 0.847417 15.3573 1.54225 14.9296C2.23725 14.5021 3.14308 14.2884 4.25975 14.2884C4.44425 14.2884 4.63008 14.2941 4.81725 14.3056C5.00442 14.3171 5.19292 14.3395 5.38275 14.3729C5.18792 14.6845 5.04333 15.008 4.949 15.3431C4.85483 15.6785 4.80775 16.0224 4.80775 16.3749V17.7884H1.3655ZM7.40775 17.7884C7.14742 17.7884 6.93108 17.7017 6.75875 17.5284C6.58625 17.3552 6.5 17.1405 6.5 16.8844V16.4134C6.5 15.9452 6.63142 15.5173 6.89425 15.1296C7.15708 14.7418 7.53592 14.4037 8.03075 14.1154C8.52558 13.8269 9.11025 13.6105 9.78475 13.4664C10.4591 13.322 11.1962 13.2499 11.9963 13.2499C12.8116 13.2499 13.5564 13.322 14.2308 13.4664C14.9051 13.6105 15.4897 13.8269 15.9845 14.1154C16.4795 14.4037 16.8558 14.7418 17.1135 15.1296C17.3712 15.5173 17.5 15.9452 17.5 16.4134V16.8844C17.5 17.1405 17.4133 17.3552 17.24 17.5284C17.0668 17.7017 16.8522 17.7884 16.596 17.7884H7.40775ZM19.1923 17.7884V16.3761C19.1923 15.9996 19.1478 15.6454 19.0588 15.3134C18.9696 14.9814 18.8359 14.6679 18.6578 14.3729C18.8539 14.3395 19.0414 14.3171 19.2203 14.3056C19.3991 14.2941 19.5757 14.2884 19.75 14.2884C20.8667 14.2884 21.7708 14.4996 22.4625 14.9221C23.1542 15.3445 23.5 15.8935 23.5 16.5691V16.9229C23.5 17.168 23.4171 17.3736 23.2512 17.5396C23.0852 17.7055 22.8797 17.7884 22.6345 17.7884H19.1923ZM4.257 13.3171C3.78567 13.3171 3.383 13.1495 3.049 12.8144C2.715 12.4792 2.548 12.0763 2.548 11.6056C2.548 11.1288 2.71567 10.726 3.051 10.3971C3.38617 10.0683 3.78908 9.90387 4.25975 9.90387C4.73658 9.90387 5.141 10.0683 5.473 10.3971C5.80517 10.726 5.97125 11.1298 5.97125 11.6086C5.97125 12.0733 5.80692 12.4742 5.47825 12.8114C5.14975 13.1485 4.74267 13.3171 4.257 13.3171ZM19.75 13.3171C19.2833 13.3171 18.8814 13.1485 18.5443 12.8114C18.2071 12.4742 18.0385 12.0733 18.0385 11.6086C18.0385 11.1298 18.2071 10.726 18.5443 10.3971C18.8814 10.0683 19.2839 9.90387 19.7518 9.90387C20.2339 9.90387 20.6394 10.0683 20.9683 10.3971C21.2971 10.726 21.4615 11.1288 21.4615 11.6056C21.4615 12.0763 21.2975 12.4792 20.9695 12.8144C20.6415 13.1495 20.235 13.3171 19.75 13.3171ZM12.0035 12.4999C11.2832 12.4999 10.6698 12.2475 10.1635 11.7426C9.65717 11.238 9.404 10.625 9.404 9.90387C9.404 9.1682 9.65633 8.55162 10.161 8.05412C10.6658 7.55645 11.2788 7.30762 12 7.30762C12.7355 7.30762 13.3521 7.55612 13.8497 8.05312C14.3472 8.54995 14.596 9.1657 14.596 9.90037C14.596 10.6205 14.3476 11.2339 13.8508 11.7404C13.3538 12.2467 12.738 12.4999 12.0035 12.4999Z" fill="#5F29FE"/>
</g>
</svg>
