<svg width="48" height="48" viewBox="0 0 48 48" fill="none" xmlns="http://www.w3.org/2000/svg">
<g clip-path="url(#clip0_277_10713)">
<path d="M24 28.9998C25.3833 28.9998 26.5625 28.5123 27.5375 27.5373C28.5125 26.5623 29 25.3831 29 23.9998C29 22.6164 28.5125 21.4373 27.5375 20.4623C26.5625 19.4873 25.3833 18.9998 24 18.9998C22.6167 18.9998 21.4375 19.4873 20.4625 20.4623C19.4875 21.4373 19 22.6164 19 23.9998C19 25.3831 19.4875 26.5623 20.4625 27.5373C21.4375 28.5123 22.6167 28.9998 24 28.9998ZM24 33.9998C22.6167 33.9998 21.3167 33.7373 20.1 33.2123C18.8833 32.6873 17.825 31.9748 16.925 31.0748C16.025 30.1748 15.3125 29.1164 14.7875 27.8998C14.2625 26.6831 14 25.3831 14 23.9998C14 22.6164 14.2625 21.3164 14.7875 20.0998C15.3125 18.8831 16.025 17.8248 16.925 16.9248C17.825 16.0248 18.8833 15.3123 20.1 14.7873C21.3167 14.2623 22.6167 13.9998 24 13.9998C25.3833 13.9998 26.6833 14.2623 27.9 14.7873C29.1167 15.3123 30.175 16.0248 31.075 16.9248C31.975 17.8248 32.6875 18.8831 33.2125 20.0998C33.7375 21.3164 34 22.6164 34 23.9998C34 25.3831 33.7375 26.6831 33.2125 27.8998C32.6875 29.1164 31.975 30.1748 31.075 31.0748C30.175 31.9748 29.1167 32.6873 27.9 33.2123C26.6833 33.7373 25.3833 33.9998 24 33.9998ZM24 31.9998C26.2333 31.9998 28.125 31.2248 29.675 29.6748C31.225 28.1248 32 26.2331 32 23.9998C32 21.7664 31.225 19.8748 29.675 18.3248C28.125 16.7748 26.2333 15.9998 24 15.9998C21.7667 15.9998 19.875 16.7748 18.325 18.3248C16.775 19.8748 16 21.7664 16 23.9998C16 26.2331 16.775 28.1248 18.325 29.6748C19.875 31.2248 21.7667 31.9998 24 31.9998Z" fill="#5F29FE"/>
</g>
<defs>
<clipPath id="clip0_277_10713">
<rect x="4" y="3.99976" width="40" height="40" rx="20" fill="white"/>
</clipPath>
</defs>
</svg>
