<svg width="144" height="145" viewBox="0 0 144 145" fill="none" xmlns="http://www.w3.org/2000/svg">
<path d="M72 8.41019C80.4046 8.41019 88.7269 10.0656 96.4917 13.2819C104.257 16.4982 111.312 21.2124 117.255 27.1554C123.198 33.0983 127.912 40.1536 131.128 47.9185C134.345 55.6833 136 64.0056 136 72.4102C136 80.8148 134.345 89.1371 131.128 96.9019C127.912 104.667 123.198 111.722 117.255 117.665C111.312 123.608 104.257 128.322 96.4917 131.538C88.7269 134.755 80.4046 136.41 72 136.41C63.5954 136.41 55.2731 134.755 47.5082 131.538C39.7434 128.322 32.6881 123.608 26.7451 117.665C20.8022 111.722 16.088 104.667 12.8717 96.9019C9.6554 89.1371 8 80.8148 8 72.4102C8 64.0056 9.65542 55.6833 12.8717 47.9184C16.088 40.1536 20.8022 33.0983 26.7452 27.1553C32.6881 21.2124 39.7435 16.4982 47.5083 13.2819C55.2731 10.0656 63.5954 8.41018 72 8.41019L72 8.41019Z" stroke="#1E2238" stroke-width="16" stroke-linecap="round" stroke-linejoin="round"/>
<path d="M72 8.41019C81.9957 8.41019 91.8524 10.7515 100.78 15.2464C109.708 19.7414 117.459 26.2651 123.412 34.2947C129.365 42.3244 133.355 51.6368 135.061 61.4858C136.767 71.3347 136.142 81.4464 133.237 91.0106C130.332 100.575 125.228 109.326 118.332 116.562C111.436 123.798 102.941 129.318 93.5282 132.681C84.115 136.043 74.0451 137.154 64.1254 135.924C54.2057 134.694 44.712 131.158 36.4049 125.598" stroke="#0D49FB" stroke-width="16" stroke-linecap="round" stroke-linejoin="round"/>
</svg>
