<svg width="184" height="185" viewBox="0 0 184 185" fill="none" xmlns="http://www.w3.org/2000/svg">
<path d="M92 8.41019C103.031 8.41019 113.954 10.5829 124.145 14.8043C134.337 19.0257 143.597 25.2131 151.397 33.0132C159.197 40.8133 165.384 50.0734 169.606 60.2648C173.827 70.4561 176 81.3792 176 92.4102C176 103.441 173.827 114.364 169.606 124.556C165.384 134.747 159.197 144.007 151.397 151.807C143.597 159.607 134.337 165.795 124.145 170.016C113.954 174.237 103.031 176.41 92 176.41C80.9689 176.41 70.0459 174.237 59.8546 170.016C49.6632 165.795 40.4031 159.607 32.603 151.807C24.8029 144.007 18.6155 134.747 14.3941 124.556C10.1727 114.364 7.99999 103.441 8 92.4101C8.00001 81.3791 10.1727 70.4561 14.3941 60.2647C18.6155 50.0734 24.8029 40.8133 32.6031 33.0132C40.4032 25.2131 49.6633 19.0257 59.8546 14.8043C70.046 10.5829 80.969 8.41018 92.0001 8.41019L92 8.41019Z" stroke="#1E2238" stroke-width="16" stroke-linecap="round" stroke-linejoin="round"/>
<path d="M92 8.41019C108.246 8.41019 124.144 13.1213 137.767 21.9729C151.39 30.8244 162.154 43.4365 168.754 58.2813C175.355 73.126 177.509 89.5664 174.956 105.611C172.403 121.655 165.252 136.615 154.37 148.677C143.488 160.74 129.341 169.388 113.643 173.574C97.9455 177.76 81.3708 177.304 65.9271 172.261C50.4834 167.219 36.8334 157.806 26.6307 145.163C16.428 132.52 10.1104 117.19 8.4434 101.03" stroke="#4ACFFF" stroke-width="16" stroke-linecap="round" stroke-linejoin="round"/>
</svg>
