<svg width="224" height="225" viewBox="0 0 224 225" fill="none" xmlns="http://www.w3.org/2000/svg">
<path d="M112 8.41019C125.657 8.41019 139.181 11.1002 151.799 16.3267C164.417 21.5532 175.882 29.2138 185.539 38.8711C195.196 48.5284 202.857 59.9933 208.083 72.6111C213.31 85.229 216 98.7527 216 112.41C216 126.068 213.31 139.591 208.083 152.209C202.857 164.827 195.196 176.292 185.539 185.949C175.882 195.607 164.417 203.267 151.799 208.494C139.181 213.72 125.657 216.41 112 216.41C98.3425 216.41 84.8187 213.72 72.2009 208.494C59.583 203.267 48.1182 195.607 38.4609 185.949C28.8036 176.292 21.143 164.827 15.9165 152.209C10.69 139.591 7.99999 126.068 8 112.41C8.00001 98.7527 10.6901 85.2289 15.9166 72.6111C21.143 59.9932 28.8036 48.5283 38.4609 38.871C48.1182 29.2138 59.5831 21.5532 72.201 16.3267C84.8188 11.1002 98.3426 8.41018 112 8.41019L112 8.41019Z" stroke="#1E2238" stroke-width="16" stroke-linecap="round" stroke-linejoin="round"/>
<path d="M86.738 11.525C110.078 5.68045 134.723 8.1097 156.473 18.3988C178.223 28.6879 195.733 46.2002 206.018 67.9518C216.304 89.7035 218.729 114.349 212.881 137.688C207.033 161.027 193.273 181.617 173.946 195.949C154.619 210.28 130.921 217.467 106.889 216.285C82.857 215.102 59.9786 205.623 42.1519 189.464C24.3251 173.304 12.6531 151.463 9.12445 127.662C5.59583 103.861 10.429 79.5734 22.8004 58.9366" stroke="#5F29FE" stroke-width="16" stroke-linecap="round" stroke-linejoin="round"/>
</svg>
