<svg width="18" height="18" viewBox="0 0 18 18" fill="none" xmlns="http://www.w3.org/2000/svg">
<mask id="mask0_12_3188" style="mask-type:alpha" maskUnits="userSpaceOnUse" x="0" y="0" width="18" height="18">
<rect width="18" height="18" fill="#D9D9D9"/>
</mask>
<g mask="url(#mask0_12_3188)">
<path d="M9.48779 8.50954V4.98735C9.48779 4.84923 9.44142 4.73341 9.34867 4.63991C9.25592 4.54654 9.14104 4.49985 9.00404 4.49985C8.86692 4.49985 8.75079 4.54654 8.65567 4.63991C8.56042 4.73341 8.51279 4.84923 8.51279 4.98735V8.6826C8.51279 8.77085 8.52917 8.8501 8.56192 8.92035C8.59454 8.9906 8.63973 9.0546 8.69748 9.11235L11.3007 11.7158C11.4065 11.8215 11.5224 11.8725 11.6484 11.8686C11.7744 11.8647 11.8917 11.8085 12.0003 11.6999C12.1089 11.5912 12.1632 11.4751 12.1632 11.3515C12.1632 11.228 12.1068 11.1104 11.9939 10.9986L9.48779 8.50954ZM9.00161 15.8249C8.06148 15.8249 7.17773 15.6472 6.35036 15.292C5.52311 14.9367 4.79817 14.4479 4.17554 13.8255C3.55292 13.2032 3.06386 12.4776 2.70836 11.6489C2.35298 10.8202 2.17529 9.93479 2.17529 8.99254C2.17529 8.05029 2.35292 7.16435 2.70817 6.33473C3.06342 5.5051 3.55223 4.7821 4.17461 4.16573C4.79698 3.54935 5.52254 3.06341 6.35129 2.70791C7.17992 2.35254 8.06536 2.17485 9.00761 2.17485C9.94986 2.17485 10.8358 2.35397 11.6654 2.71223C12.4952 3.07047 13.2169 3.55666 13.8307 4.17079C14.4444 4.78491 14.9303 5.5071 15.2883 6.33735C15.6463 7.1676 15.8253 8.05466 15.8253 8.99854C15.8253 9.93866 15.6477 10.8224 15.2924 11.6498C14.9372 12.477 14.4515 13.202 13.8354 13.8246C13.2192 14.4472 12.4957 14.9363 11.6649 15.2918C10.834 15.6472 9.94623 15.8249 9.00161 15.8249Z" fill="#1C1B1F"/>
</g>
</svg>
