<svg width="18" height="18" viewBox="0 0 18 18" fill="none" xmlns="http://www.w3.org/2000/svg">
<mask id="mask0_171_11025" style="mask-type:alpha" maskUnits="userSpaceOnUse" x="0" y="0" width="18" height="18">
<rect width="18" height="18" fill="#D9D9D9"/>
</mask>
<g mask="url(#mask0_171_11025)">
<path d="M9.48731 8.51047V4.98828C9.48731 4.85016 9.44093 4.73434 9.34818 4.64084C9.25543 4.54747 9.14056 4.50078 9.00356 4.50078C8.86643 4.50078 8.7503 4.54747 8.65518 4.64084C8.55993 4.73434 8.51231 4.85016 8.51231 4.98828V8.68353C8.51231 8.77178 8.52868 8.85103 8.56143 8.92128C8.59406 8.99153 8.63924 9.05553 8.69699 9.11328L11.3002 11.7167C11.406 11.8225 11.5219 11.8734 11.6479 11.8695C11.7739 11.8657 11.8912 11.8094 11.9998 11.7008C12.1084 11.5922 12.1627 11.476 12.1627 11.3524C12.1627 11.2289 12.1063 11.1113 11.9934 10.9995L9.48731 8.51047ZM9.00112 15.8258C8.06099 15.8258 7.17724 15.6482 6.34987 15.2929C5.52262 14.9377 4.79768 14.4488 4.17505 13.8265C3.55243 13.2041 3.06337 12.4785 2.70787 11.6498C2.35249 10.8212 2.1748 9.93572 2.1748 8.99347C2.1748 8.05122 2.35243 7.16528 2.70768 6.33566C3.06293 5.50603 3.55174 4.78303 4.17412 4.16666C4.79649 3.55028 5.52206 3.06434 6.35081 2.70884C7.17943 2.35347 8.06487 2.17578 9.00712 2.17578C9.94937 2.17578 10.8353 2.35491 11.6649 2.71316C12.4947 3.07141 13.2164 3.55759 13.8302 4.17172C14.4439 4.78584 14.9298 5.50803 15.2878 6.33828C15.6458 7.16853 15.8248 8.05559 15.8248 8.99947C15.8248 9.93959 15.6472 10.8233 15.2919 11.6507C14.9367 12.478 14.451 13.2029 13.8349 13.8255C13.2187 14.4482 12.4952 14.9372 11.6644 15.2927C10.8335 15.6481 9.94574 15.8258 9.00112 15.8258Z" fill="#1C1B1F"/>
</g>
</svg>
