<svg width="24" height="24" viewBox="0 0 24 24" fill="none" xmlns="http://www.w3.org/2000/svg">
<mask id="mask0_12_3350" style="mask-type:alpha" maskUnits="userSpaceOnUse" x="0" y="0" width="24" height="24">
<rect width="24" height="24" fill="#D9D9D9"/>
</mask>
<g mask="url(#mask0_12_3350)">
<path d="M3.02753 17.2591C2.87236 17.1041 2.79894 16.926 2.80728 16.7246C2.81561 16.5233 2.88903 16.3535 3.02753 16.2151L8.07178 11.1054C8.41661 10.754 8.84353 10.5784 9.35253 10.5784C9.86136 10.5784 10.2914 10.754 10.6428 11.1054L13.1408 13.6189C13.1986 13.6765 13.2692 13.7054 13.3525 13.7054C13.4359 13.7054 13.5095 13.6765 13.5735 13.6189L18.966 8.28613H16.7505C16.5377 8.28613 16.3595 8.21438 16.216 8.07088C16.0724 7.92722 16.0005 7.74897 16.0005 7.53613C16.0005 7.3233 16.0724 7.14513 16.216 7.00163C16.3595 6.85797 16.5377 6.78613 16.7505 6.78613H20.5965C20.8544 6.78613 21.0694 6.87238 21.2418 7.04488C21.4143 7.21738 21.5005 7.43247 21.5005 7.69013V11.5361C21.5005 11.749 21.4287 11.9272 21.285 12.0709C21.1415 12.2144 20.9634 12.2861 20.7505 12.2861C20.5377 12.2861 20.3595 12.216 20.216 12.0756C20.0724 11.9353 20.0005 11.7587 20.0005 11.5459V9.33988L14.6333 14.7074C14.2883 15.0522 13.8614 15.2246 13.3525 15.2246C12.8435 15.2246 12.4166 15.0522 12.0718 14.7074L9.57353 12.2091C9.51586 12.1515 9.44219 12.1226 9.35253 12.1226C9.26269 12.1226 9.18895 12.1515 9.13128 12.2091L4.08128 17.2591C3.93644 17.4041 3.76078 17.4766 3.55428 17.4766C3.34794 17.4766 3.17236 17.4041 3.02753 17.2591Z" fill="#FBF8F5"/>
</g>
</svg>
