<svg width="18" height="18" viewBox="0 0 18 18" fill="none" xmlns="http://www.w3.org/2000/svg">
<mask id="mask0_171_11125" style="mask-type:alpha" maskUnits="userSpaceOnUse" x="0" y="0" width="18" height="18">
<rect width="18" height="18" fill="#D9D9D9"/>
</mask>
<g mask="url(#mask0_171_11125)">
<path d="M8.04425 10.0608L6.7895 8.8175C6.68563 8.71363 6.57263 8.6605 6.4505 8.65813C6.32837 8.65575 6.21538 8.70644 6.1115 8.81019C6.00288 8.91894 5.94856 9.03507 5.94856 9.15857C5.94856 9.28207 6.00288 9.39819 6.1115 9.50694L7.62594 11.0214C7.74906 11.1444 7.8885 11.2059 8.04425 11.2059C8.2 11.2059 8.33944 11.1444 8.46256 11.0214L11.8895 7.59444C11.9885 7.49532 12.0404 7.38038 12.0451 7.24963C12.05 7.11888 11.9981 7.00157 11.8895 6.89769C11.7856 6.79394 11.6738 6.74325 11.5541 6.74563C11.4344 6.748 11.3227 6.80113 11.2188 6.905L8.04425 10.0608ZM6.40156 15.7175L5.34575 13.9925L3.38413 13.5524C3.22838 13.5198 3.1065 13.4439 3.0185 13.3246C2.9305 13.2054 2.89662 13.0679 2.91687 12.9121L3.08994 10.8944L1.75588 9.40588C1.653 9.28288 1.60156 9.14732 1.60156 8.99919C1.60156 8.85107 1.653 8.7155 1.75588 8.5925L3.08994 7.10394L2.91687 5.08625C2.89662 4.9305 2.9305 4.793 3.0185 4.67375C3.1065 4.5545 3.22838 4.47857 3.38413 4.44594L5.34575 4.00588L6.40156 2.28088C6.47944 2.15788 6.58688 2.06944 6.72388 2.01557C6.86088 1.96169 7.00344 1.96363 7.15156 2.02138L9.0005 2.82182L10.8494 2.02138C10.9976 1.96363 11.1401 1.96169 11.2771 2.01557C11.4141 2.06944 11.5216 2.15788 11.5994 2.28088L12.6553 4.00588L14.6169 4.44594C14.7726 4.47857 14.8945 4.5545 14.9825 4.67375C15.0705 4.793 15.1044 4.9305 15.0841 5.08625L14.9111 7.10394L16.2451 8.5925C16.348 8.7155 16.3994 8.85107 16.3994 8.99919C16.3994 9.14732 16.348 9.28288 16.2451 9.40588L14.9111 10.8944L15.0841 12.9121C15.1044 13.0679 15.0705 13.2054 14.9825 13.3246C14.8945 13.4439 14.7726 13.5198 14.6169 13.5524L12.6553 13.9925L11.5994 15.7175C11.5216 15.8405 11.4141 15.9289 11.2771 15.9828C11.1401 16.0367 10.9976 16.0348 10.8494 15.977L9.0005 15.1766L7.15156 15.977C7.00344 16.0348 6.86088 16.0367 6.72388 15.9828C6.58688 15.9289 6.47944 15.8405 6.40156 15.7175Z" fill="url(#paint0_linear_171_11125)"/>
</g>
<defs>
<linearGradient id="paint0_linear_171_11125" x1="9.0005" y1="1.97656" x2="9.0005" y2="16.0218" gradientUnits="userSpaceOnUse">
<stop stop-color="#4ACFFF"/>
<stop offset="1" stop-color="#5F29FE"/>
</linearGradient>
</defs>
</svg>
