<svg width="20" height="20" viewBox="0 0 20 20" fill="none" xmlns="http://www.w3.org/2000/svg">
<mask id="mask0_171_11019" style="mask-type:alpha" maskUnits="userSpaceOnUse" x="0" y="0" width="20" height="20">
<rect width="20" height="20" fill="#D9D9D9"/>
</mask>
<g mask="url(#mask0_171_11019)">
<path d="M9.99935 9.83464L8.65956 10.8651C8.59553 10.9099 8.52928 10.9086 8.46081 10.8611C8.39247 10.8136 8.3722 10.7535 8.39997 10.6807L8.91768 8.99964L7.56018 7.98693C7.49074 7.94207 7.47129 7.88061 7.50185 7.80255C7.53227 7.72464 7.59074 7.68568 7.67727 7.68568H9.31831L9.83581 6.00943C9.86358 5.93665 9.9181 5.90026 9.99935 5.90026C10.0806 5.90026 10.1351 5.93665 10.1629 6.00943L10.6804 7.68568H12.3296C12.4161 7.68568 12.4732 7.72464 12.501 7.80255C12.5288 7.88061 12.508 7.94207 12.4385 7.98693L11.0891 8.99964L11.6066 10.6807C11.6344 10.7535 11.6141 10.8136 11.5458 10.8611C11.4775 10.9086 11.4112 10.9099 11.3471 10.8651L9.99935 9.83464ZM9.99935 17.5686L6.69164 18.208C6.48761 18.2528 6.30386 18.2055 6.14039 18.0661C5.97692 17.9266 5.89518 17.7523 5.89518 17.543V12.9996C5.29796 12.5178 4.81879 11.8597 4.45768 11.0253C4.09657 10.191 3.91602 9.34964 3.91602 8.5013C3.91602 6.81325 4.50789 5.37734 5.69164 4.19359C6.87539 3.00984 8.31129 2.41797 9.99935 2.41797C11.6874 2.41797 13.1233 3.00984 14.3071 4.19359C15.4908 5.37734 16.0827 6.81325 16.0827 8.5013C16.0827 9.36352 15.916 10.2083 15.5827 11.0357C15.2493 11.8632 14.7493 12.5248 14.0827 13.0205V17.543C14.0827 17.7523 14.0009 17.9266 13.8375 18.0661C13.674 18.2055 13.4903 18.2528 13.2862 18.208L9.99935 17.5686ZM9.99935 13.5013C11.3882 13.5013 12.5688 13.0152 13.541 12.043C14.5132 11.0707 14.9993 9.89019 14.9993 8.5013C14.9993 7.11241 14.5132 5.93186 13.541 4.95964C12.5688 3.98741 11.3882 3.5013 9.99935 3.5013C8.61046 3.5013 7.4299 3.98741 6.45768 4.95964C5.48546 5.93186 4.99935 7.11241 4.99935 8.5013C4.99935 9.89019 5.48546 11.0707 6.45768 12.043C7.4299 13.0152 8.61046 13.5013 9.99935 13.5013Z" fill="#1C1B1F"/>
</g>
</svg>
