<svg width="20" height="20" viewBox="0 0 20 20" fill="none" xmlns="http://www.w3.org/2000/svg">
<mask id="mask0_12_3182" style="mask-type:alpha" maskUnits="userSpaceOnUse" x="0" y="0" width="20" height="20">
<rect width="20" height="20" fill="#D9D9D9"/>
</mask>
<g mask="url(#mask0_12_3182)">
<path d="M9.99984 9.83366L8.66005 10.8641C8.59602 10.9089 8.52977 10.9076 8.4613 10.8601C8.39296 10.8126 8.37268 10.7525 8.40046 10.6797L8.91817 8.99866L7.56067 7.98595C7.49123 7.94109 7.47178 7.87963 7.50234 7.80158C7.53275 7.72366 7.59123 7.6847 7.67775 7.6847H9.3188L9.8363 6.00845C9.86407 5.93567 9.91859 5.89928 9.99984 5.89928C10.0811 5.89928 10.1356 5.93567 10.1634 6.00845L10.6809 7.6847H12.33C12.4166 7.6847 12.4737 7.72366 12.5015 7.80158C12.5293 7.87963 12.5084 7.94109 12.439 7.98595L11.0896 8.99866L11.6071 10.6797C11.6349 10.7525 11.6146 10.8126 11.5463 10.8601C11.478 10.9076 11.4117 10.9089 11.3475 10.8641L9.99984 9.83366ZM9.99984 17.5676L6.69213 18.207C6.4881 18.2519 6.30435 18.2046 6.14088 18.0651C5.97741 17.9257 5.89567 17.7513 5.89567 17.542V12.9987C5.29845 12.5169 4.81928 11.8587 4.45817 11.0243C4.09706 10.19 3.9165 9.34866 3.9165 8.50033C3.9165 6.81227 4.50838 5.37637 5.69213 4.19262C6.87588 3.00887 8.31178 2.41699 9.99984 2.41699C11.6879 2.41699 13.1238 3.00887 14.3075 4.19262C15.4913 5.37637 16.0832 6.81227 16.0832 8.50033C16.0832 9.36255 15.9165 10.2073 15.5832 11.0347C15.2498 11.8622 14.7498 12.5238 14.0832 13.0195V17.542C14.0832 17.7513 14.0014 17.9257 13.838 18.0651C13.6745 18.2046 13.4907 18.2519 13.2867 18.207L9.99984 17.5676ZM9.99984 13.5003C11.3887 13.5003 12.5693 13.0142 13.5415 12.042C14.5137 11.0698 14.9998 9.88921 14.9998 8.50033C14.9998 7.11144 14.5137 5.93088 13.5415 4.95866C12.5693 3.98644 11.3887 3.50033 9.99984 3.50033C8.61095 3.50033 7.43039 3.98644 6.45817 4.95866C5.48595 5.93088 4.99984 7.11144 4.99984 8.50033C4.99984 9.88921 5.48595 11.0698 6.45817 12.042C7.43039 13.0142 8.61095 13.5003 9.99984 13.5003Z" fill="#1C1B1F"/>
</g>
</svg>
